<?xml version="1.0" encoding="UTF-8" standalone="no"?>
<!DOCTYPE svg PUBLIC "-//W3C//DTD SVG 1.1//EN" "http://www.w3.org/Graphics/SVG/1.1/DTD/svg11.dtd">
<svg width="100%" height="100%" viewBox="0 0 36 36" version="1.1" xmlns="http://www.w3.org/2000/svg" xmlns:xlink="http://www.w3.org/1999/xlink" xml:space="preserve" xmlns:serif="http://www.serif.com/" style="fill-rule:evenodd;clip-rule:evenodd;stroke-linejoin:round;stroke-miterlimit:2;">
    <g transform="matrix(1,0,0,1,0,-15.085948)">
        <clipPath id="_clip1">
            <rect x="0" y="0" width="35.168" height="48"/>
        </clipPath>
        <g clip-path="url(#_clip1)">
            <g transform="matrix(1,0,0,1,0.947269,0)">
                <path d="M17.044,39.33L17.053,48L19.835,48L27.495,32.522L28.045,48L34.429,48L33.374,17.972L27.577,17.972L17.044,39.33Z" style="fill:rgb(61,207,182);fill-rule:nonzero;"/>
            </g>
            <g transform="matrix(-1,0,0,1,35.0441,0)">
                <path d="M17.044,39.33L17.053,48L19.835,48L27.495,32.522L28.045,48L34.429,48L33.374,17.972L27.577,17.972L17.044,39.33Z" style="fill:rgb(61,207,182);fill-rule:nonzero;"/>
            </g>
            <g transform="matrix(0,1,-1,0,55.808854,-4.932327)">
                <rect x="28.895" y="29.125" width="6.273" height="17.069" style="fill:rgb(61,207,182);"/>
            </g>
        </g>
    </g>
</svg>
